<svg class="svg-icon" style="width: 1em; height: 1em;vertical-align: middle;fill: currentColor;overflow: hidden;" viewBox="0 0 1024 1024" version="1.1" xmlns="http://www.w3.org/2000/svg"><path d="M511.998 81.856c-237.556 0-430.14 192.586-430.14 430.15 0 237.546 192.584 430.136 430.14 430.136S942.14 749.552 942.14 512.006c0-237.562-192.586-430.15-430.142-430.15z" fill="#EDF3FC" /><path d="M511.998 2C230.784 2 2 230.786 2 512.006 2 793.212 230.784 1022 511.998 1022 793.214 1022 1022 793.212 1022 512.006 1022 230.786 793.214 2 511.998 2z m0 1003.656c-272.206 0-493.66-221.456-493.66-493.65 0-272.21 221.456-493.668 493.66-493.668s493.664 221.458 493.664 493.668c0 272.196-221.458 493.65-493.664 493.65z" fill="#EDF3FC" /><path d="M359.324 767.33a71.796 71.796 0 0 1-52.182-52.18l-1.1-4.386-1.098 4.386a71.79 71.79 0 0 1-52.18 52.18l-4.386 1.096 4.386 1.094a71.786 71.786 0 0 1 52.18 52.184l1.098 4.384 1.1-4.384a71.792 71.792 0 0 1 52.182-52.184l4.388-1.094-4.388-1.096z" fill="#330D84" /><path d="M462.228 203.438a57.712 57.712 0 0 1-41.96-41.96l-0.886-3.52-0.884 3.52a57.714 57.714 0 0 1-41.962 41.96l-3.524 0.89 3.524 0.882a57.71 57.71 0 0 1 41.962 41.96l0.884 3.528 0.886-3.528a57.712 57.712 0 0 1 41.96-41.96l3.53-0.882-3.53-0.89zM361.814 235.35a31.038 31.038 0 0 1-22.564-22.564l-0.476-1.892-0.476 1.892a31.034 31.034 0 0 1-22.566 22.564l-1.894 0.478 1.894 0.474a31.04 31.04 0 0 1 22.566 22.564l0.476 1.898 0.476-1.898a31.038 31.038 0 0 1 22.564-22.564l1.898-0.474-1.898-0.478z" fill="#FFBE1B" /><path d="M851.178 660.652a72.206 72.206 0 0 1-52.484-52.482l-1.1-4.408-1.112 4.408a72.194 72.194 0 0 1-52.484 52.482l-4.406 1.12 4.406 1.116a72.16 72.16 0 0 1 52.484 52.462l1.112 4.416 1.1-4.416a72.18 72.18 0 0 1 52.484-52.462l4.412-1.116-4.412-1.12zM775.92 587.534a38.286 38.286 0 0 1-27.826-27.824l-0.582-2.338-0.59 2.338a38.278 38.278 0 0 1-27.826 27.824l-2.336 0.592 2.336 0.59a38.26 38.26 0 0 1 27.826 27.812l0.59 2.342 0.582-2.342a38.262 38.262 0 0 1 27.826-27.812l2.338-0.59-2.338-0.592zM665.924 303.66h-85.454l97.206 97.202V678.58c0 23.064-18.696 41.76-41.752 41.76H358.086c-3.962 0-7.782-0.586-11.414-1.618 2.54 20.634 20.096 36.618 41.414 36.618h277.838c23.056 0 41.752-18.696 41.752-41.76V345.412c0-23.06-18.696-41.752-41.752-41.752z" fill="#5D8EF9" /><path d="M545.47 268.66h-187.384c-23.06 0-41.762 18.694-41.762 41.754v93.87c14.858 10.912 25.956 27.07 30.166 46.5 6.502 30.01-5.15 59.708-27.576 77.706l19.418 131.448-20.418 28.758-0.358-0.208c4.456 18.272 20.888 31.854 40.53 31.854h277.838c23.056 0 41.752-18.696 41.752-41.76v-277.72l-132.206-132.202z" fill="#330D84" /><path d="M545.47 268.66v90.448c0 23.06 18.696 41.754 41.752 41.754h90.454l-132.206-132.202z" fill="#6857E5" /><path d="M477 339.764h-103.99a10 10 0 0 0 0 20H477a10 10 0 0 0 0-20zM517 402.166h-143.99a10 10 0 0 0 0 20H517a10 10 0 0 0 0-20zM607 464.564H373.01a10 10 0 0 0 0 20H607a10 10 0 0 0 0-20zM607 526.962H373.01a10 10 0 0 0 0 20H607a10 10 0 0 0 0-20zM607 589.364H373.01a10 10 0 0 0 0 20H607a10 10 0 0 0 0-20zM607 651.762H373.01a10 10 0 0 0 0 20H607a10 10 0 0 0 0-20z" fill="#FFFFFF" /><path d="M346.49 450.784c-9.16-42.266-50.852-69.11-93.122-59.95-42.268 9.16-69.108 50.85-59.95 93.12 6.502 30.01 29.402 52.22 57.264 59.32l19.44 67.566 21.478 13.828-11.604 18.024 18.024 11.6-10.642 16.53 0.042 0.15 30.494 17.724 20.418-28.758-19.418-131.448c22.426-17.998 34.08-47.698 27.576-77.706z m-76.224 18.036c-16.05 3.478-31.88-6.714-35.36-22.768-3.478-16.048 6.712-31.882 22.764-35.36 16.052-3.478 31.888 6.714 35.366 22.766 3.48 16.054-6.716 31.884-22.77 35.362z" fill="#FFBE1B" /></svg>